# xmcd CD database file
#
# Track frame offsets:
#	150
#	25542
#	36545
#	62432
#	92444
#	117132
#	130321
#	146646
#	168664
#	190587
#	205577
#	219143
#
# Disc length: 3254 seconds
#
# Revision: 0
# Processed by: cddbd v1.5.1PL0 Copyright (c) Steve Scherf et al.
# Submitted via: CDex 1.51
#
DISCID=9c0cb40c
DTITLE=Son de mi Cuba - Son de mi Cuba
DYEAR=1900
DGENRE=Salsa
TTITLE0=son de la loma
TTITLE1=convergencias
TTITLE2=marieta
TTITLE3=ricon vacilon
TTITLE4=larimas negras
TTITLE5=como fue
TTITLE6=el carreto
TTITLE7=las maracas de mi cuba
TTITLE8=que manera de quererte
TTITLE9=chaqui chaqui
TTITLE10=ojos malignos
TTITLE11=son de mi cuba
EXTD=
EXTT0=
EXTT1=
EXTT2=
EXTT3=
EXTT4=
EXTT5=
EXTT6=
EXTT7=
EXTT8=
EXTT9=
EXTT10=
EXTT11=
PLAYORDER=
